<svg width="20" height="20" viewBox="0 0 20 20" fill="none" xmlns="http://www.w3.org/2000/svg">
<path d="M3.55005 9.18333V13.325C3.55005 14.8417 3.55005 14.8417 4.98338 15.8083L8.92505 18.0833C9.51672 18.425 10.4834 18.425 11.075 18.0833L15.0167 15.8083C16.45 14.8417 16.45 14.8417 16.45 13.325V9.18333C16.45 7.66666 16.45 7.66666 15.0167 6.7L11.075 4.425C10.4834 4.08333 9.51672 4.08333 8.92505 4.425L4.98338 6.7C3.55005 7.66666 3.55005 7.66666 3.55005 9.18333Z" stroke="white" stroke-linecap="round" stroke-linejoin="round"/>
<path d="M14.5834 6.35833V4.16666C14.5834 2.5 13.7501 1.66666 12.0834 1.66666H7.91675C6.25008 1.66666 5.41675 2.5 5.41675 4.16666V6.3" stroke="white" stroke-linecap="round" stroke-linejoin="round"/>
<path d="M10.525 9.15833L11 9.9C11.075 10.0167 11.2416 10.1333 11.3666 10.1667L12.2166 10.3833C12.7416 10.5167 12.8833 10.9667 12.5416 11.3833L11.9833 12.0583C11.9 12.1667 11.8333 12.3583 11.8416 12.4917L11.8916 13.3667C11.925 13.9083 11.5416 14.1833 11.0416 13.9833L10.225 13.6583C10.1 13.6083 9.89165 13.6083 9.76665 13.6583L8.94998 13.9833C8.44998 14.1833 8.06665 13.9 8.09998 13.3667L8.14998 12.4917C8.15831 12.3583 8.09165 12.1583 8.00831 12.0583L7.44998 11.3833C7.10831 10.9667 7.24998 10.5167 7.77498 10.3833L8.62498 10.1667C8.75831 10.1333 8.92498 10.0083 8.99165 9.9L9.46665 9.15833C9.76665 8.70833 10.2333 8.70833 10.525 9.15833Z" stroke="white" stroke-linecap="round" stroke-linejoin="round"/>
</svg>
