<svg width="20" height="20" viewBox="0 0 20 20" fill="none" xmlns="http://www.w3.org/2000/svg">
<path d="M18.3334 13.95V3.89168C18.3334 2.89168 17.5167 2.15001 16.5251 2.23335H16.4751C14.7251 2.38335 12.0667 3.27502 10.5834 4.20835L10.4417 4.30001C10.2001 4.45001 9.80008 4.45001 9.55842 4.30001L9.35008 4.17502C7.86675 3.25002 5.21675 2.36668 3.46675 2.22501C2.47508 2.14168 1.66675 2.89168 1.66675 3.88335V13.95C1.66675 14.75 2.31675 15.5 3.11675 15.6L3.35841 15.6333C5.16675 15.875 7.95842 16.7917 9.55842 17.6667L9.59175 17.6833C9.81675 17.8083 10.1751 17.8083 10.3917 17.6833C11.9917 16.8 14.7917 15.875 16.6084 15.6333L16.8834 15.6C17.6834 15.5 18.3334 14.75 18.3334 13.95Z" stroke="#0C2748" stroke-width="1.5" stroke-linecap="round" stroke-linejoin="round"/>
<path d="M10 4.57501V17.075" stroke="#0C2748" stroke-width="1.5" stroke-linecap="round" stroke-linejoin="round"/>
<path d="M6.45825 7.07501H4.58325" stroke="#0C2748" stroke-width="1.5" stroke-linecap="round" stroke-linejoin="round"/>
<path d="M7.08325 9.57501H4.58325" stroke="#0C2748" stroke-width="1.5" stroke-linecap="round" stroke-linejoin="round"/>
</svg>
