<svg width="20" height="20" viewBox="0 0 20 20" fill="none" xmlns="http://www.w3.org/2000/svg">
<path d="M14.1667 8.33333H15.8334C17.5001 8.33333 18.3334 7.5 18.3334 5.83333V4.16667C18.3334 2.5 17.5001 1.66667 15.8334 1.66667H14.1667C12.5001 1.66667 11.6667 2.5 11.6667 4.16667V5.83333C11.6667 7.5 12.5001 8.33333 14.1667 8.33333Z" stroke="white" stroke-miterlimit="10" stroke-linecap="round" stroke-linejoin="round"/>
<path d="M4.16675 18.3333H5.83341C7.50008 18.3333 8.33341 17.5 8.33341 15.8333V14.1667C8.33341 12.5 7.50008 11.6667 5.83341 11.6667H4.16675C2.50008 11.6667 1.66675 12.5 1.66675 14.1667V15.8333C1.66675 17.5 2.50008 18.3333 4.16675 18.3333Z" stroke="white" stroke-miterlimit="10" stroke-linecap="round" stroke-linejoin="round"/>
<path d="M5.00008 8.33333C6.84103 8.33333 8.33341 6.84095 8.33341 5C8.33341 3.15905 6.84103 1.66667 5.00008 1.66667C3.15913 1.66667 1.66675 3.15905 1.66675 5C1.66675 6.84095 3.15913 8.33333 5.00008 8.33333Z" stroke="white" stroke-miterlimit="10" stroke-linecap="round" stroke-linejoin="round"/>
<path d="M15.0001 18.3333C16.841 18.3333 18.3334 16.841 18.3334 15C18.3334 13.1591 16.841 11.6667 15.0001 11.6667C13.1591 11.6667 11.6667 13.1591 11.6667 15C11.6667 16.841 13.1591 18.3333 15.0001 18.3333Z" stroke="white" stroke-miterlimit="10" stroke-linecap="round" stroke-linejoin="round"/>
</svg>
