<svg width="20" height="21" viewBox="0 0 20 21" fill="none" xmlns="http://www.w3.org/2000/svg">
<path d="M15.8333 10.1463H4.16667C3.24619 10.1463 2.5 10.8925 2.5 11.813V17.6463C2.5 18.5668 3.24619 19.313 4.16667 19.313H15.8333C16.7538 19.313 17.5 18.5668 17.5 17.6463V11.813C17.5 10.8925 16.7538 10.1463 15.8333 10.1463Z" stroke="white" stroke-linecap="round" stroke-linejoin="round"/>
<path d="M5.83325 10.1463V6.81298C5.83325 5.70791 6.27224 4.6481 7.05364 3.8667C7.83504 3.0853 8.89485 2.64631 9.99992 2.64631C11.105 2.64631 12.1648 3.0853 12.9462 3.8667C13.7276 4.6481 14.1666 5.70791 14.1666 6.81298V10.1463" stroke="white" stroke-linecap="round" stroke-linejoin="round"/>
</svg>
