<svg width="20" height="20" viewBox="0 0 20 20" fill="none" xmlns="http://www.w3.org/2000/svg">
<path d="M14.9999 5.96667C14.9499 5.95833 14.8916 5.95833 14.8416 5.96667C13.6916 5.925 12.7749 4.98333 12.7749 3.81667C12.7749 2.625 13.7332 1.66666 14.9249 1.66666C16.1166 1.66666 17.0749 2.63333 17.0749 3.81667C17.0666 4.98333 16.1499 5.925 14.9999 5.96667Z" stroke="#0C2748" stroke-linecap="round" stroke-linejoin="round"/>
<path d="M14.1415 12.0333C15.2831 12.225 16.5415 12.025 17.4248 11.4333C18.5998 10.65 18.5998 9.36667 17.4248 8.58334C16.5331 7.99167 15.2581 7.79166 14.1165 7.99166" stroke="#0C2748" stroke-linecap="round" stroke-linejoin="round"/>
<path d="M4.9749 5.96667C5.0249 5.95833 5.08324 5.95833 5.13324 5.96667C6.28324 5.925 7.1999 4.98333 7.1999 3.81667C7.1999 2.625 6.24157 1.66666 5.0499 1.66666C3.85824 1.66666 2.8999 2.63333 2.8999 3.81667C2.90824 4.98333 3.8249 5.925 4.9749 5.96667Z" stroke="#0C2748" stroke-linecap="round" stroke-linejoin="round"/>
<path d="M5.83328 12.0333C4.69162 12.225 3.43328 12.025 2.54995 11.4333C1.37495 10.65 1.37495 9.36667 2.54995 8.58334C3.44162 7.99167 4.71662 7.79166 5.85828 7.99166" stroke="#0C2748" stroke-linecap="round" stroke-linejoin="round"/>
<path d="M10.0001 12.1917C9.95015 12.1833 9.89181 12.1833 9.84181 12.1917C8.69181 12.15 7.77515 11.2083 7.77515 10.0417C7.77515 8.85001 8.73348 7.89167 9.92514 7.89167C11.1168 7.89167 12.0751 8.85834 12.0751 10.0417C12.0668 11.2083 11.1501 12.1583 10.0001 12.1917Z" stroke="#0C2748" stroke-linecap="round" stroke-linejoin="round"/>
<path d="M7.5751 14.8167C6.4001 15.6 6.4001 16.8833 7.5751 17.6667C8.90843 18.5583 11.0918 18.5583 12.4251 17.6667C13.6001 16.8833 13.6001 15.6 12.4251 14.8167C11.1001 13.9333 8.90843 13.9333 7.5751 14.8167Z" stroke="#0C2748" stroke-linecap="round" stroke-linejoin="round"/>
</svg>
